<?xml version="1.0" encoding="utf-8"?>
<!-- Generator: Adobe Illustrator 25.4.1, SVG Export Plug-In . SVG Version: 6.00 Build 0)  -->
<svg version="1.1" id="Layer_1" xmlns="http://www.w3.org/2000/svg" xmlns:xlink="http://www.w3.org/1999/xlink" x="0px" y="0px"
	 viewBox="0 0 1285 400" style="enable-background:new 0 0 1285 400;" xml:space="preserve">
<style type="text/css">
	.st0{fill:#FFFFFF;stroke:#FFFFFF;stroke-miterlimit:10;}
</style>
<g>
	<g>
		<path class="st0" d="M393.5,261.2h-40.7V146.3h41.1c11.6,0,21.5,2.3,29.8,6.9c8.3,4.6,14.8,11.2,19.3,19.7
			c4.5,8.6,6.8,18.8,6.8,30.7c0,12-2.3,22.3-6.8,30.9c-4.5,8.6-11,15.2-19.4,19.8C415.2,258.9,405.2,261.2,393.5,261.2z
			 M377.1,240.4h15.4c7.2,0,13.2-1.3,18.2-3.8c4.9-2.6,8.6-6.5,11.1-12c2.5-5.4,3.7-12.4,3.7-21c0-8.5-1.2-15.4-3.7-20.8
			c-2.5-5.4-6.2-9.4-11.1-11.9c-4.9-2.5-10.9-3.8-18.1-3.8h-15.5V240.4z"/>
		<path class="st0" d="M506.5,262.9c-8.9,0-16.5-1.8-22.9-5.4c-6.4-3.6-11.3-8.7-14.7-15.4c-3.4-6.6-5.2-14.5-5.2-23.6
			c0-8.9,1.7-16.6,5.2-23.3c3.4-6.7,8.3-11.9,14.6-15.7c6.3-3.7,13.6-5.6,22.1-5.6c5.7,0,11,0.9,15.9,2.7c4.9,1.8,9.2,4.5,12.9,8.2
			c3.7,3.6,6.6,8.2,8.6,13.7c2.1,5.5,3.1,11.9,3.1,19.2v6.6h-72.8v-14.8h50.3c0-3.4-0.7-6.5-2.2-9.1c-1.5-2.7-3.6-4.7-6.2-6.3
			c-2.6-1.5-5.7-2.3-9.2-2.3c-3.6,0-6.8,0.8-9.6,2.5c-2.8,1.7-5,3.9-6.5,6.7c-1.6,2.8-2.4,5.9-2.4,9.3v14.1c0,4.3,0.8,7.9,2.4,11.1
			c1.6,3.1,3.8,5.5,6.8,7.2c2.9,1.7,6.4,2.5,10.4,2.5c2.7,0,5.1-0.4,7.3-1.1c2.2-0.7,4.1-1.9,5.7-3.4c1.6-1.5,2.8-3.3,3.6-5.5
			l22.1,1.5c-1.1,5.3-3.4,9.9-6.9,13.9c-3.5,3.9-7.9,7-13.4,9.2C519.9,261.8,513.6,262.9,506.5,262.9z"/>
		<path class="st0" d="M624.5,179.3c-0.4-4.5-2.4-8-5.8-10.5c-3.4-2.5-8-3.8-13.9-3.8c-4,0-7.3,0.6-10,1.7c-2.7,1.1-4.8,2.6-6.3,4.6
			c-1.4,1.9-2.2,4.2-2.2,6.6c-0.1,2.1,0.4,3.9,1.3,5.4c1,1.5,2.3,2.9,4,4c1.7,1.1,3.6,2.1,5.8,2.9c2.2,0.8,4.6,1.5,7.1,2l10.3,2.5
			c5,1.1,9.6,2.6,13.8,4.5c4.2,1.9,7.8,4.2,10.9,6.9c3.1,2.7,5.5,5.9,7.2,9.7c1.7,3.7,2.6,7.9,2.6,12.7c0,7-1.8,13.1-5.4,18.3
			s-8.6,9.1-15.3,12c-6.6,2.8-14.6,4.2-24,4.2c-9.3,0-17.3-1.4-24.2-4.3c-6.9-2.8-12.2-7.1-16-12.7c-3.8-5.6-5.8-12.5-6-20.8h23.5
			c0.3,3.9,1.4,7.1,3.3,9.6c2,2.6,4.6,4.5,7.9,5.8s7.1,1.9,11.2,1.9c4.1,0,7.7-0.6,10.7-1.8s5.4-2.9,7.1-5s2.5-4.6,2.5-7.3
			c0-2.6-0.8-4.8-2.3-6.5c-1.5-1.8-3.7-3.3-6.6-4.5s-6.4-2.4-10.6-3.4l-12.5-3.1c-9.7-2.4-17.3-6-22.9-11.1
			c-5.6-5-8.4-11.8-8.4-20.3c0-7,1.8-13,5.6-18.2c3.8-5.2,8.9-9.3,15.5-12.2c6.6-2.9,14.1-4.4,22.4-4.4c8.5,0,16,1.5,22.4,4.4
			c6.4,2.9,11.3,7,14.9,12.2c3.6,5.2,5.4,11.2,5.5,18.1H624.5z"/>
		<path class="st0" d="M704.1,262.9c-8.8,0-16.4-1.9-22.8-5.6c-6.3-3.8-11.2-9-14.6-15.7c-3.4-6.7-5.1-14.4-5.1-23.1
			c0-8.8,1.7-16.6,5.1-23.3c3.4-6.7,8.3-11.9,14.6-15.7c6.3-3.8,13.8-5.6,22.6-5.6c7.5,0,14.1,1.4,19.8,4.1
			c5.6,2.7,10.1,6.6,13.4,11.5s5.1,10.7,5.4,17.4H720c-0.6-4.3-2.3-7.8-5-10.4c-2.7-2.6-6.3-4-10.6-4c-3.7,0-6.9,1-9.7,3
			c-2.7,2-4.9,4.9-6.4,8.7c-1.5,3.8-2.3,8.4-2.3,13.9c0,5.5,0.8,10.2,2.3,14s3.7,6.8,6.4,8.8c2.8,2,6,3,9.7,3c2.7,0,5.2-0.6,7.4-1.7
			c2.2-1.1,4-2.8,5.4-4.9c1.4-2.2,2.4-4.7,2.8-7.8h22.6c-0.4,6.6-2.2,12.4-5.4,17.4c-3.2,5-7.6,8.9-13.2,11.7
			C718.4,261.5,711.7,262.9,704.1,262.9z"/>
		<path class="st0" d="M769.9,163.9c-3.6,0-6.6-1.2-9.1-3.5c-2.5-2.4-3.8-5.2-3.8-8.5c0-3.3,1.3-6.2,3.8-8.6
			c2.5-2.4,5.6-3.6,9.1-3.6c3.6,0,6.6,1.2,9.1,3.5c2.5,2.4,3.8,5.2,3.8,8.5s-1.3,6.2-3.8,8.6C776.5,162.7,773.5,163.9,769.9,163.9z
			 M757.9,261.2V175h23.9v86.2H757.9z"/>
		<path class="st0" d="M838,261.2V146.3h24.3v94.9h49.3v20H838z"/>
		<path class="st0" d="M951.8,262.8c-5.5,0-10.4-1-14.7-2.9c-4.3-1.9-7.7-4.8-10.2-8.6c-2.5-3.8-3.7-8.5-3.7-14.2
			c0-4.8,0.9-8.8,2.6-12.1c1.8-3.3,4.2-5.9,7.2-7.9c3-2,6.5-3.5,10.4-4.5c3.9-1,7.9-1.7,12.2-2.1c5-0.5,9.1-1,12.1-1.5
			c3.1-0.5,5.3-1.2,6.7-2.1c1.4-0.9,2.1-2.3,2.1-4.2v-0.3c0-3.6-1.1-6.3-3.3-8.2c-2.2-1.9-5.4-2.9-9.5-2.9c-4.3,0-7.7,0.9-10.3,2.8
			c-2.5,1.9-4.2,4.3-5,7.1l-22.1-1.8c1.1-5.2,3.3-9.8,6.6-13.6c3.3-3.8,7.5-6.8,12.8-8.9c5.2-2.1,11.3-3.1,18.2-3.1
			c4.8,0,9.4,0.6,13.8,1.7s8.3,2.9,11.7,5.2c3.4,2.4,6.1,5.4,8.1,9.1s3,8.1,3,13.2v58.1h-22.7v-12H977c-1.4,2.7-3.2,5.1-5.6,7.1
			c-2.3,2-5.1,3.6-8.4,4.8C959.8,262.2,956.1,262.8,951.8,262.8z M958.6,246.3c3.5,0,6.6-0.7,9.3-2.1s4.8-3.3,6.3-5.7
			c1.5-2.4,2.3-5.1,2.3-8.1v-9.1c-0.7,0.5-1.8,0.9-3.1,1.3c-1.3,0.4-2.7,0.7-4.3,1.1c-1.6,0.3-3.2,0.6-4.8,0.8
			c-1.6,0.2-3.1,0.5-4.4,0.6c-2.8,0.4-5.3,1.1-7.4,2c-2.1,0.9-3.7,2.1-4.9,3.6c-1.2,1.5-1.7,3.4-1.7,5.6c0,3.3,1.2,5.7,3.6,7.4
			C951.9,245.5,955,246.3,958.6,246.3z"/>
		<path class="st0" d="M1019.3,261.2V146.3h23.9v43.2h0.7c1-2.3,2.6-4.7,4.6-7.1c2-2.4,4.6-4.4,7.9-6.1c3.2-1.6,7.3-2.4,12.1-2.4
			c6.3,0,12.1,1.6,17.4,4.9c5.3,3.3,9.6,8.2,12.7,14.8c3.2,6.6,4.8,14.8,4.8,24.7c0,9.6-1.5,17.7-4.6,24.3
			c-3.1,6.6-7.3,11.6-12.6,15c-5.3,3.4-11.2,5.1-17.8,5.1c-4.6,0-8.6-0.8-11.8-2.3s-5.9-3.5-7.9-5.8c-2.1-2.3-3.6-4.7-4.7-7.1h-1.1
			v13.8H1019.3z M1042.7,218.1c0,5.1,0.7,9.6,2.1,13.4c1.4,3.8,3.5,6.8,6.2,8.9c2.7,2.1,6,3.2,9.8,3.2c3.9,0,7.2-1.1,9.9-3.2
			c2.7-2.2,4.7-5.1,6.1-9c1.4-3.8,2.1-8.3,2.1-13.3c0-5-0.7-9.4-2.1-13.1s-3.4-6.7-6.1-8.9c-2.7-2.1-6-3.2-9.9-3.2
			c-3.9,0-7.2,1-9.8,3.1c-2.7,2.1-4.7,5-6.1,8.8C1043.4,208.5,1042.7,213,1042.7,218.1z"/>
		<path class="st0" d="M1191,199.6l-21.9,1.3c-0.4-1.9-1.2-3.6-2.4-5.1s-2.9-2.7-4.9-3.6c-2-0.9-4.4-1.4-7.2-1.4
			c-3.7,0-6.8,0.8-9.4,2.3c-2.5,1.6-3.8,3.6-3.8,6.2c0,2.1,0.8,3.8,2.5,5.2c1.6,1.4,4.5,2.6,8.5,3.4l15.6,3.1
			c8.4,1.7,14.6,4.5,18.7,8.3c4.1,3.8,6.2,8.8,6.2,15c0,5.6-1.7,10.6-5,14.9c-3.3,4.3-7.8,7.6-13.6,10s-12.4,3.6-19.8,3.6
			c-11.4,0-20.5-2.4-27.2-7.2c-6.8-4.8-10.7-11.3-11.9-19.5l23.5-1.2c0.7,3.5,2.4,6.1,5.2,7.9c2.7,1.8,6.2,2.7,10.5,2.7
			c4.2,0,7.6-0.8,10.1-2.4c2.6-1.6,3.9-3.7,3.9-6.3c0-2.2-1-4-2.7-5.4c-1.8-1.4-4.6-2.5-8.3-3.2l-14.9-3c-8.4-1.7-14.7-4.6-18.8-8.8
			c-4.1-4.2-6.1-9.4-6.1-15.9c0-5.5,1.5-10.3,4.5-14.3c3-4,7.3-7.1,12.7-9.3c5.5-2.2,11.9-3.3,19.3-3.3c10.9,0,19.5,2.3,25.7,6.9
			C1186.3,185.4,1189.9,191.6,1191,199.6z"/>
	</g>
</g>
<g id="LOGO">
	<path class="st0" d="M111.6,200.1c-0.2,0.9,1.7,4.9,4.1,9c2.4,4,9.9,16.7,16.7,28.3c6.7,11.5,15.3,26.2,19,32.5
		c3.7,6.3,14.5,24.8,24,41c9.5,16.2,18.1,30.4,19.1,31.5c1.7,1.7,2.1,1.8,3.2,0.5c2.9-3.1,82.1-140.4,82.1-142.3
		c0.1-1.8-2.9-3.3-21.3-10.4c-11.8-4.6-21.6-8.5-21.7-8.6c-0.1-0.1,0.3-3.5,0.9-7.5c1.9-13.5-2.7-28.6-11.2-37.1
		c-2.3-2.3-4.1-4.3-4.1-4.5s5-0.1,11.2,0.2l11.2,0.5l-5.4-6.1l-5.4-6.2h-22.1c-18.2,0.1-22.9,0.4-27,1.8
		c-11.8,4.1-19.5,10.9-24.6,21.5c-4,8.5-5.2,15.4-4.7,27.3l0.3,10.2l-22,8.3C118.5,195.9,111.8,198.9,111.6,200.1z M270.6,208.1
		c-1.1,1.8-17.2,29.4-35.7,61.3c-18.6,31.9-34.4,58.9-35.2,60c-1.1,1.7-1.3-5.3-1.1-45.3l0.3-47.4l36-15.8
		c19.8-8.7,36.4-15.8,36.8-15.9C272.2,204.9,271.7,206.4,270.6,208.1z M186.8,136.8c4.9-2.2,14.3-2.5,18.9-0.6
		c14.4,6.1,20.7,28,13.8,47.9c-6.7,19.5-22.7,26.3-35.2,15.1C167.6,184.1,169.2,144.8,186.8,136.8z M157.6,188
		c0.3-0.1,1.6,1.9,2.8,4.4c7.7,16,26.7,25,44.3,21.1c12.4-2.8,20.2-8.5,26.9-19.7l3.4-5.6l14.4,5.6c8,3.2,15.4,6,16.5,6.5
		c1.5,0.5-6.5,4.4-33.5,16.2c-19.5,8.5-36.4,15.3-37.5,15.1c-3.2-0.6-70.4-30.1-69.8-30.7c0.2-0.3,7.5-3.3,16.1-6.7
		C149.8,190.8,157.2,188,157.6,188z"/>
	<path class="st0" d="M196.7,95.9l16.5,7.5c9.2,4,16.8,7.2,17,7.1c0.2-0.2-7.2-10.9-16.4-23.7c-9.1-12.9-16.7-23.5-16.8-23.6
		c-0.1-0.1-7.9,10.6-17.3,23.7c-9.4,13.2-16.9,24-16.7,24c0.2,0,7.9-3.4,17-7.5L196.7,95.9z"/>
</g>
</svg>
