<?xml version="1.0" encoding="utf-8"?>
<!-- Generator: Adobe Illustrator 25.4.1, SVG Export Plug-In . SVG Version: 6.00 Build 0)  -->
<svg version="1.1" id="Layer_1" xmlns="http://www.w3.org/2000/svg" xmlns:xlink="http://www.w3.org/1999/xlink" x="0px" y="0px"
	 viewBox="0 0 1000 1000" style="enable-background:new 0 0 1000 1000;" xml:space="preserve">
<style type="text/css">
	.st0{fill:none;stroke:#000000;stroke-width:45;stroke-linecap:round;stroke-linejoin:round;}
</style>
<g transform="matrix( 1, 0, 0, 1, 705.8,9.5) ">
	<g id="Layer_1_00000158018548502542102640000010391207331089074598_">
		<g>
			<g>
				<path class="st0" d="M-445.8,536.6l80,46.2v92.4l-80,46.2l-80-46.2l0-92.4L-445.8,536.6v-92.4l80-46.1
					c-0.2-61.9-0.2-123.5,0-184.8l159.9-92.3l160,92.4v184.6l80,46.2v92.4l80,46.2v92.3l-80,46.2l-80-46.2l0.1-92.3l79.9-46.2
					 M-205.8,675.2l-80,46.2v92.4l80,46.2l80-46.2v-92.3L-205.8,675.2V490.5l-160-92.4 M-45.8,398.1l-160,92.4"/>
			</g>
		</g>
	</g>
</g>
</svg>
