<?xml version="1.0" standalone="no"?>
<!DOCTYPE svg PUBLIC "-//W3C//DTD SVG 20010904//EN"
 "http://www.w3.org/TR/2001/REC-SVG-20010904/DTD/svg10.dtd">
<svg version="1.0" xmlns="http://www.w3.org/2000/svg"
 width="400.000000pt" height="400.000000pt" viewBox="0 0 400.000000 400.000000"
 preserveAspectRatio="xMidYMid meet">
<metadata>
Created by potrace 1.14, written by Peter Selinger 2001-2017
</metadata>
<g transform="translate(0.000000,400.000000) scale(0.100000,-0.100000)"
fill="#000000" stroke="none">
<path d="M0 2000 l0 -2000 2000 0 2000 0 0 2000 0 2000 -2000 0 -2000 0 0
-2000z m2144 1131 c92 -128 166 -235 164 -237 -2 -1 -78 31 -170 71 l-165 75
-164 -74 c-90 -41 -166 -73 -167 -71 -2 2 72 109 164 239 93 129 169 234 170
233 1 -1 77 -107 168 -236z m256 -403 l54 -61 -112 5 c-62 3 -112 4 -112 2 0
-2 18 -22 41 -45 85 -85 131 -236 112 -371 -6 -40 -10 -74 -9 -75 1 -1 99 -40
217 -86 184 -71 214 -86 213 -104 0 -19 -792 -1392 -821 -1423 -11 -13 -15
-12 -32 5 -10 11 -111 178 -223 370 -257 440 -352 600 -495 844 -63 106 -113
201 -111 210 2 11 72 42 223 100 l220 83 -3 102 c-5 119 7 188 47 273 51 106
128 174 246 215 41 14 88 17 270 18 l221 0 54 -62z"/>
<path d="M1874 2631 c-176 -80 -192 -473 -25 -624 125 -112 285 -44 352 151
69 199 6 418 -138 479 -46 19 -140 16 -189 -6z"/>
<path d="M1418 2057 c-86 -34 -159 -64 -161 -67 -6 -6 666 -301 698 -307 11
-2 180 66 375 151 270 118 350 157 335 162 -11 5 -85 33 -165 65 l-144 56 -34
-56 c-68 -114 -161 -179 -289 -201 -168 -29 -349 63 -423 215 -12 25 -25 45
-28 44 -4 0 -78 -28 -164 -62z"/>
<path d="M2360 1791 l-365 -159 -3 -473 c-1 -260 0 -470 3 -467 3 2 167 283
366 624 198 340 363 622 366 627 2 4 3 7 1 7 -2 0 -167 -72 -368 -159z"/>
</g>
</svg>
